<svg width="12" height="15" fill="none" xmlns="http://www.w3.org/2000/svg"><path clip-rule="evenodd" d="M6 7.761c1.842 0 3.333-1.54 3.333-3.44S7.842.88 6 .88 2.667 2.42 2.667 4.32 4.158 7.76 6 7.76zm0-5.504c1.105 0 2 .923 2 2.064 0 1.14-.895 2.064-2 2.064s-2-.923-2-2.064c0-1.14.895-2.064 2-2.064zm6 11.697c0 .38-.299.688-.667.688a.678.678 0 01-.666-.688v-1.376c0-1.005-2.563-2.064-4.667-2.064-2.104 0-4.667 1.06-4.667 2.064v1.376c0 .38-.298.688-.666.688A.678.678 0 010 13.954v-1.376c0-2.109 3.22-3.44 6-3.44s6 1.331 6 3.44v1.376z"/></svg>