<svg width="25" height="12" fill="none" xmlns="http://www.w3.org/2000/svg"><path fill-rule="evenodd" clip-rule="evenodd" d="M0 .857c0 .474.384.857.857.857h13.714a.857.857 0 100-1.714H.857A.857.857 0 000 .857zm14.571 6a.857.857 0 100-1.714H.857a.857.857 0 100 1.714h13.714zm0 5.143a.857.857 0 000-1.714H.857a.857.857 0 000 1.714h13.714zm10.286-6a.857.857 0 01-.857.857h-1.714v1.714a.857.857 0 11-1.715 0V6.857h-1.714a.857.857 0 010-1.714h1.714V3.429a.857.857 0 011.715 0v1.714H24c.473 0 .857.384.857.857z" fill="#9B8869"/></svg>