<svg width="184" height="30" fill="none" xmlns="http://www.w3.org/2000/svg"><path d="M10.625 10.492c0 .403 1.839 1.19 2.964 1.19 2.16 0 4.5-2.895 4.5-5.974 0-2.932-2.107-5.003-5.036-5.003C7.178.705 0 9.1 0 15.843c0 4.527 3.25 8.339 7.107 8.339 4.071 0 8.678-4.252 11.767-10.611.072-.147.125-.367.125-.514 0-.311-.196-.55-.482-.55s-.518.257-1.071 1.265c-2.75 5.04-6.875 8.357-10.59 8.357-2.481 0-3.945-1.448-3.945-3.922 0-5.791 8.16-15.284 13.267-15.284 0 3.408-2.964 7.385-5.125 7.385-.321 0-.428.092-.428.184z" fill="#9B8869"/><path d="M28.162 12.343c0-.788-2.535-1.98-3.107-1.98-1.036 0-3.91 3.702-5.767 6.965 1.75-4.839 4.856-11.821 5.642-11.821.107 0 .197-.11.197-.239 0-.586-2.036-1.594-3.107-1.594-1.536 0-6.875 15.01-6.875 16.787 0 1.137 2.285 2.218 2.946 2.218.197 0 .322-.092.322-.385 0-1.283 2.5-5.663 4.874-8.724-.91 2.053-1.875 5.315-1.875 7.111 0 .935 1.786 1.998 3.643 1.998.625 0 6.59-9.017 6.643-9.823.018-.184-.197-.348-.429-.348-.303 0-.625.256-.857.641-.41.697-5.232 7.844-5.482 7.844-.036 0-.053-.11-.053-.293 0-2.09 2.357-8.01 3.053-8.01.107 0 .232-.164.232-.347z" fill="#9B8869"/><path d="M31.723 19.747c0-2.035 1.143-4.765 2.518-6.231.125.99.946 1.832 2.053 2.199-.625 2.566-2.464 5.406-3.821 5.406-.41 0-.75-.256-.75-1.374zm4.767-5.627c0 .165 0 .33-.017.514-.554-.239-.893-.642-.893-1.137 0-.385.196-.623.428-.623.268 0 .482.403.482 1.246zm.965 1.796c2.125 0 4.482-1.63 4.482-3.115 0-.403-.161-.623-.411-.623-.196 0-.393.128-.59.568-.553 1.228-1.892 2.09-3.338 2.09.017-.184.017-.367.017-.55 0-.44-.035-.844-.107-1.174a.33.33 0 00.143.037c.179 0 .429-.22.429-.586 0-1.1-2.25-2.383-4.125-2.383-2.34 0-5.696 4.875-5.696 8.284 0 2.327 1.553 4.215 3.41 4.215 2.464 0 5.107-3.354 5.786-6.763z" fill="#9B8869"/><path d="M47.78 10.382c-1.428 0-3.857 3.848-5.589 7.11.875-2.62 2.054-5.37 2.411-5.37.072 0 .143-.09.143-.182 0-.55-2.196-1.558-3.321-1.558-.893 0-5.768 15.303-5.768 16.567 0 .843 2.214 2.346 3.268 2.346.303 0 .517-.147.517-.422 0-.164-.053-.238-.178-.238s-.196-.128-.196-.385c0-.953 1-3.922 2.41-6.89.393.55 2.143 1.319 3.232 1.319 2.804 0 5.964-5.168 5.964-10.025 0-.733-2-2.272-2.892-2.272zm-6.106 10.556c1.053-2.09 4.803-8.687 5.785-9.42 0 4.783-2.857 9.255-5.785 9.42zm18.801-10.556c-1.428 0-3.857 3.848-5.589 7.11.875-2.62 2.054-5.37 2.41-5.37.072 0 .144-.09.144-.182 0-.55-2.197-1.558-3.322-1.558-.892 0-5.767 15.303-5.767 16.567 0 .843 2.214 2.346 3.267 2.346.304 0 .518-.147.518-.422 0-.164-.053-.238-.178-.238s-.197-.128-.197-.385c0-.953 1-3.922 2.411-6.89.393.55 2.143 1.319 3.232 1.319 2.803 0 5.964-5.168 5.964-10.025 0-.733-2-2.272-2.893-2.272zm-6.107 10.556c1.054-2.09 4.804-8.687 5.786-9.42 0 4.783-2.857 9.255-5.786 9.42zm19.177-7.698c0-1.484-1.821-2.877-3.41-2.877-2.858 0-6.393 4.49-6.393 7.79 0 2.547 2.09 4.526 4.071 4.526 4.16 0 8.982-8.632 9.178-9.035a1.14 1.14 0 00.108-.458c0-.367-.233-.678-.518-.678-.197 0-.393.183-.59.55-.517 1.007-4.964 8.063-7.642 8.063-.804 0-1.304-.641-1.304-1.704 0-2.53 2.786-6.011 4.732-6.231-.321 2.254-2.607 3.812-3.767 3.812-.233 0-.358.055-.358.128 0 .238 1.054.77 1.768.77 1.393 0 4.125-2.126 4.125-4.655z" fill="#9B8869"/><path d="M84.522 16.21c-.036 0-.053-.055-.053-.202 0-1.045.875-3.17 1.5-3.17.196 0 .375-.22.375-.44 0-.825-2.536-2.016-3.143-2.016-1.018 0-3.786 3.573-5.66 6.78.91-2.51 2.088-5.02 2.446-5.02.053 0 .125-.093.125-.202 0-.679-2.358-1.558-3.179-1.558-.91 0-3.91 8.613-3.91 9.951 0 1.246 2.57 2.346 3.232 2.346.196 0 .321-.092.321-.385 0-1.246 2.357-5.425 4.696-8.467a5.076 5.076 0 00-.303 1.668c0 .77 2.232 1.998 3.642 1.998.679 0 4.768-4.216 4.732-4.912-.017-.128-.214-.33-.428-.33-.268 0-.572.257-.786.513-.482.605-3.357 3.446-3.607 3.446zm18.141-7.643c.125 0 .304-.16.304-.462 0-.887-1.594-2.289-2.919-2.289-1.505 0-7.666 14.25-7.666 16.806 0 1.26 1.469 2.769 2.418 2.769.322 0 .537-.178.537-.763 0-.249.036-.55.108-.905 1.54 1.082 3.206 1.686 4.818 1.686 4.89 0 9.672-4.118 9.672-8.36 0-2.147-1.236-3.637-3.314-4.294 3.493-1.224 5.553-3.319 5.553-5.98 0-3.62-3.797-6.07-9.35-6.07-7.361 0-13.183 4.348-13.183 9.193 0 2.325 1.344 4.064 3.368 4.064.752 0 1.11-.23 1.11-.462 0-.195-.268-.372-.734-.372-1.2 0-2.06-1.154-2.06-2.609 0-3.638 5.427-6.832 11.481-6.832 4.084 0 6.681 1.455 6.681 3.673 0 2.698-3.815 4.685-9.457 5.111 1.164-2.254 2.221-3.904 2.633-3.904zm-3.78 6.194c1.846-.675 3.529-.994 4.944-.994 2.418 0 3.977.958 3.977 2.644 0 3.035-4.98 6.46-9.243 6.46-1.003 0-1.934-.195-2.758-.568.645-2.094 1.845-4.97 3.08-7.543zm15.472 8.128c.645 0 6.645-8.554 6.699-9.335.018-.178-.197-.338-.43-.338-.304 0-.627.249-.842.604-.429.692-5.266 7.436-5.516 7.436-.036 0-.054-.107-.054-.195 0-.87 2.203-7.969 2.884-7.969.071 0 .179-.106.179-.266 0-.71-1.935-1.863-2.956-1.863-.824 0-3.797 8.465-3.797 9.796 0 1.1 1.97 2.13 3.833 2.13zm3.188-12.37c.609 0 .645-.142.645-.355 0-1.153 1.165-3.673 1.809-3.673.144 0 .269-.142.269-.267 0-.55-1.917-1.739-2.597-1.739-.985 0-2.597 2.556-2.597 4.029 0 1.153 1.021 2.005 2.471 2.005z" fill="#9B8869"/><path d="M126.563 21.256c-.86 0-1.558-1.367-1.558-2.538 2.077 0 4.782-4.277 4.782-5.927 0-.515-2.185-1.828-2.884-1.828-1.146 0-3.994 3.478-5.875 6.601 1.791-4.685 4.926-11.375 5.696-11.375.108 0 .251-.142.251-.266 0-.462-2.06-1.438-3.117-1.438-1.361 0-7.039 14.535-7.039 16.256 0 1.083 2.293 2.148 2.938 2.148.197 0 .322-.09.322-.373 0-.675.699-2.183 1.72-3.904.376 2.218 2.615 4.277 4.854 4.277.644 0 6.627-8.66 6.698-9.442 0-.177-.197-.337-.429-.337-.305 0-.645.248-.86.621-.43.675-5.248 7.525-5.499 7.525zm-3.941-3.94c1.057-1.65 2.329-3.336 3.457-4.543.018 0 .018.053.018.142 0 1.189-2.006 4.525-3.098 4.525a.732.732 0 01-.377-.124z" fill="#9B8869"/><path d="M139.594 13.749c0-1.438-1.827-2.786-3.421-2.786-2.866 0-6.412 4.348-6.412 7.542 0 2.467 2.096 4.384 4.084 4.384 4.173 0 9.009-8.36 9.206-8.75.054-.106.108-.284.108-.443 0-.355-.233-.657-.52-.657-.197 0-.394.178-.591.532-.519.976-4.979 7.809-7.666 7.809-.806 0-1.307-.621-1.307-1.65 0-2.45 2.794-5.821 4.746-6.034-.322 2.183-2.615 3.691-3.779 3.691-.233 0-.358.053-.358.124 0 .23 1.056.746 1.773.746 1.397 0 4.137-2.06 4.137-4.508z" fill="#9B8869"/><path d="M145.124 18.825c2.848-1.633 6.233-3.78 7.201-4.49.215-.16.412-.426.412-.693a.457.457 0 00-.448-.461c-.179 0-.448.124-.878.461-1.075.781-4.227 2.751-6.878 4.224-.358-.603-.627-1.136-.627-1.49 0-1.119 2.777-3.55 3.923-3.55.358 0 .752.248.752.55 0 .178.126.302.269.302.197 0 .43-.195.43-.728 0-1.544-2.024-2.821-3.242-2.821-1.935 0-5.427 3.23-5.427 5.057 0 .87.823 2.378 2.006 3.692-.287.142-.574.284-.806.39-2.508 1.118-3.368 2.343-3.368 3.407 0 1.615 1.971 2.875 3.153 2.875 1.468 0 4.782-2.005 4.782-3.797 0-.781-.627-1.881-1.254-2.928zm-5.122 4.4c-.359 0-.609-.16-.609-.46 0-.498.716-1.367 2.901-2.414.287-.142.609-.302.95-.48.161.302.25.568.25.8 0 1.135-2.454 2.555-3.492 2.555z" fill="#9B8869"/><path d="M161.17 12.88c0-.764-2.544-1.917-3.117-1.917-1.039 0-3.923 3.585-5.785 6.743 1.755-4.685 4.871-11.446 5.66-11.446.107 0 .197-.107.197-.23 0-.569-2.042-1.545-3.117-1.545-1.54 0-6.896 14.535-6.896 16.256 0 1.1 2.293 2.148 2.955 2.148.197 0 .323-.09.323-.373 0-1.242 2.507-5.484 4.89-8.448-.914 1.988-1.881 5.147-1.881 6.886 0 .905 1.791 1.934 3.654 1.934.627 0 6.609-8.73 6.663-9.512.018-.177-.197-.337-.43-.337-.304 0-.627.248-.86.621-.412.675-5.248 7.596-5.498 7.596-.036 0-.054-.107-.054-.284 0-2.023 2.364-7.756 3.063-7.756.107 0 .233-.16.233-.337z" fill="#9B8869"/><path d="M164.741 20.049c0-1.97 1.146-4.614 2.526-6.034.125.958.949 1.775 2.059 2.13-.626 2.484-2.471 5.235-3.833 5.235-.412 0-.752-.248-.752-1.331zm4.783-5.448c0 .16 0 .32-.018.497-.556-.231-.896-.622-.896-1.1 0-.373.197-.604.43-.604.269 0 .484.39.484 1.207zm.967 1.739c2.131 0 4.495-1.58 4.495-3.017 0-.39-.161-.603-.411-.603-.197 0-.395.124-.592.55-.555 1.189-1.898 2.023-3.349 2.023.018-.178.018-.355.018-.532a5.3 5.3 0 00-.108-1.136c.036.017.09.035.144.035.179 0 .43-.213.43-.568 0-1.065-2.257-2.307-4.138-2.307-2.346 0-5.714 4.72-5.714 8.022 0 2.254 1.559 4.082 3.421 4.082 2.472 0 5.123-3.248 5.804-6.55z" fill="#9B8869"/><path d="M180.848 10.98c-1.433 0-3.869 3.727-5.606 6.886.878-2.538 2.06-5.2 2.418-5.2.072 0 .143-.088.143-.177 0-.533-2.203-1.509-3.331-1.509-.896 0-5.786 14.819-5.786 16.043 0 .817 2.221 2.272 3.278 2.272.305 0 .52-.142.52-.408 0-.16-.054-.23-.179-.23-.126 0-.197-.125-.197-.373 0-.923 1.003-3.798 2.418-6.673.394.532 2.149 1.277 3.242 1.277 2.812 0 5.982-5.004 5.982-9.707 0-.71-2.006-2.2-2.902-2.2zm-6.125 10.223c1.056-2.024 4.818-8.412 5.803-9.122 0 4.632-2.866 8.962-5.803 9.122z" fill="#9B8869"/></svg>