<svg width="17" height="16" fill="none" xmlns="http://www.w3.org/2000/svg"><path fill-rule="evenodd" clip-rule="evenodd" d="M8.353 12.18l2.199 1.294c.76.447 1.685-.237 1.48-1.095l-.575-2.399 1.886-1.592c.68-.576.325-1.687-.563-1.76l-2.505-.208L9.27 4.11c-.349-.802-1.486-.802-1.834 0L6.43 6.42l-2.505.207c-.889.074-1.244 1.185-.563 1.76L5.248 9.98l-.574 2.4c-.205.857.72 1.541 1.48 1.094l2.199-1.294z" fill="#9B8869"/><mask id="a" maskUnits="userSpaceOnUse" x="3" y="3" width="11" height="11"><path fill-rule="evenodd" clip-rule="evenodd" d="M8.353 12.18l2.199 1.294c.76.447 1.685-.237 1.48-1.095l-.575-2.399 1.886-1.592c.68-.576.325-1.687-.563-1.76l-2.505-.208L9.27 4.11c-.349-.802-1.486-.802-1.834 0L6.43 6.42l-2.505.207c-.889.074-1.244 1.185-.563 1.76L5.248 9.98l-.574 2.4c-.205.857.72 1.541 1.48 1.094l2.199-1.294z" fill="#fff"/></mask><g mask="url(#a)"><path fill="#9B8869" d="M.147 0h16.412v16H.147z"/></g></svg>