<svg width="14" height="14" viewBox="0 0 14 14" fill="none" xmlns="http://www.w3.org/2000/svg">
<path fill-rule="evenodd" clip-rule="evenodd" d="M13.7071 0.636155C14.0976 1.02668 14.0976 1.65984 13.7071 2.05037L8.72181 7.03565L13.7072 12.021C14.0977 12.4116 14.0977 13.0447 13.7072 13.4353C13.3167 13.8258 12.6835 13.8258 12.293 13.4353L7.3076 8.44986L2.39339 13.3641C2.00286 13.7546 1.3697 13.7546 0.979172 13.3641C0.588648 12.9736 0.588648 12.3404 0.979173 11.9499L5.89339 7.03565L0.979288 2.12155C0.588764 1.73102 0.588764 1.09786 0.979288 0.707336C1.36981 0.316811 2.00298 0.316812 2.3935 0.707336L7.3076 5.62143L12.2929 0.636155C12.6834 0.245631 13.3166 0.245631 13.7071 0.636155Z" fill="#9B8869"/>
</svg>
