<svg width="24" height="24" fill="none" xmlns="http://www.w3.org/2000/svg"><path fill-rule="evenodd" clip-rule="evenodd" d="M12 18.27l4.151 2.505c.757.458 1.692-.221 1.49-1.083L16.54 14.97l3.669-3.178c.668-.58.31-1.678-.57-1.752l-4.829-.41-1.89-4.458c-.344-.813-1.496-.813-1.84 0L9.19 9.63l-4.828.41c-.882.074-1.24 1.173-.57 1.752L7.46 14.97l-1.102 4.722c-.2.861.734 1.54 1.491 1.083L12 18.27z" fill="#9B8869"/><mask id="a" maskUnits="userSpaceOnUse" x="3" y="4" width="18" height="17"><path fill-rule="evenodd" clip-rule="evenodd" d="M12 18.27l4.151 2.505c.757.458 1.692-.221 1.49-1.083L16.54 14.97l3.669-3.178c.668-.58.31-1.678-.57-1.752l-4.829-.41-1.89-4.458c-.344-.813-1.496-.813-1.84 0L9.19 9.63l-4.828.41c-.882.074-1.24 1.173-.57 1.752L7.46 14.97l-1.102 4.722c-.2.861.734 1.54 1.491 1.083L12 18.27z" fill="#fff"/></mask><g mask="url(#a)"><path fill="#9B8869" d="M0 0h24v24H0z"/></g></svg>