<svg width="26" height="26" fill="none" xmlns="http://www.w3.org/2000/svg"><path fill-rule="evenodd" clip-rule="evenodd" d="M15.936 15.167l-.303-.293a7.01 7.01 0 001.7-4.582 7.041 7.041 0 10-7.041 7.041 7.01 7.01 0 004.582-1.7l.293.303v.856l4.71 4.7a1 1 0 001.413 0l.201-.202a1 1 0 000-1.414l-4.7-4.71h-.855zm-10.52-4.875a4.868 4.868 0 014.876-4.875 4.868 4.868 0 014.875 4.875 4.868 4.868 0 01-4.875 4.875 4.868 4.868 0 01-4.875-4.875z" fill="#F2F5F7"/><path fill-rule="evenodd" clip-rule="evenodd" d="M10.833 7.583H9.75V9.75H7.583v1.083H9.75V13h1.083v-2.167H13V9.75h-2.167V7.583z" fill="#F2F5F7"/></svg>