<svg width="22" height="13" fill="none" xmlns="http://www.w3.org/2000/svg"><path fill-rule="evenodd" clip-rule="evenodd" d="M10.467 12.555h1.278s.387-.042.584-.252c.181-.192.175-.553.175-.553s-.024-1.691.772-1.94c.785-.245 1.793 1.634 2.861 2.357.808.547 1.422.427 1.422.427l2.857-.04s1.495-.09.786-1.248c-.058-.095-.413-.857-2.124-2.422-1.791-1.639-1.552-1.374.606-4.208 1.314-1.726 1.84-2.78 1.676-3.232-.157-.43-1.123-.316-1.123-.316l-3.217.02s-.238-.032-.415.072c-.173.102-.284.34-.284.34s-.51 1.336-1.189 2.472C13.7 6.43 13.128 6.556 12.893 6.407c-.544-.347-.408-1.394-.408-2.137 0-2.323.357-3.292-.696-3.543-.35-.083-.607-.138-1.502-.147C9.14.57 8.168.584 7.618.85c-.366.176-.648.57-.476.592.212.028.694.128.95.47.329.443.317 1.435.317 1.435s.19 2.735-.442 3.074c-.434.233-1.028-.242-2.305-2.417-.655-1.114-1.149-2.345-1.149-2.345s-.095-.23-.265-.353a1.345 1.345 0 00-.494-.197l-3.057.02s-.459.012-.627.209c-.15.175-.012.537-.012.537S2.45 7.392 5.16 10.173c2.484 2.55 5.306 2.382 5.306 2.382z" fill="#6A6454"/></svg>