<svg width="18" height="21" viewBox="0 0 18 21" fill="none" xmlns="http://www.w3.org/2000/svg">
<path fill-rule="evenodd" clip-rule="evenodd" d="M9 10.5326C11.7623 10.5326 14 8.22309 14 5.37215C14 2.52121 11.7623 0.21167 9 0.21167C6.23772 0.21167 4 2.52121 4 5.37215C4 8.22309 6.23772 10.5326 9 10.5326ZM9 2.27586C10.6577 2.27586 12 3.66123 12 5.37215C12 7.08307 10.6577 8.46843 9 8.46843C7.34228 8.46843 6 7.08307 6 5.37215C6 3.66123 7.34228 2.27586 9 2.27586ZM18 19.8215C18 20.3915 17.5523 20.8536 17 20.8536C16.4477 20.8536 16 20.3915 16 19.8215V17.7573C16 16.2503 12.156 14.661 9 14.661C5.844 14.661 2 16.2503 2 17.7573V19.8215C2 20.3915 1.55228 20.8536 1 20.8536C0.447715 20.8536 0 20.3915 0 19.8215V17.7573C0 14.5942 4.83098 12.5968 9 12.5968C13.169 12.5968 18 14.5942 18 17.7573V19.8215Z" fill="#9B8869"/>
</svg>
