<svg width="18" height="21" fill="none" xmlns="http://www.w3.org/2000/svg"><path fill-rule="evenodd" clip-rule="evenodd" d="M9 10.533c2.762 0 5-2.31 5-5.16C14 2.52 11.762.211 9 .211s-5 2.31-5 5.16c0 2.851 2.238 5.16 5 5.16zm0-8.257c1.658 0 3 1.385 3 3.096s-1.342 3.096-3 3.096-3-1.385-3-3.096c0-1.71 1.342-3.096 3-3.096zm9 17.545c0 .57-.448 1.033-1 1.033s-1-.462-1-1.032v-2.065c0-1.507-3.844-3.096-7-3.096s-7 1.59-7 3.096v2.064c0 .57-.448 1.033-1 1.033s-1-.462-1-1.032v-2.065c0-3.163 4.831-5.16 9-5.16s9 1.997 9 5.16v2.064z" fill="#9B8869"/></svg>