<svg width="130" height="22" fill="none" xmlns="http://www.w3.org/2000/svg"><path fill-rule="evenodd" clip-rule="evenodd" d="M8.018 7.385c0 .305 1.388.9 2.237.9 1.63 0 3.395-2.186 3.395-4.51C13.65 1.564 12.06 0 9.85 0 5.417 0 0 6.334 0 11.424c0 3.416 2.453 6.293 5.363 6.293 2.065 0 4.313-1.45 6.273-3.858-.132.5-.207.867-.207 1.05 0 .858 1.725 1.674 2.223 1.674.149 0 .243-.07.243-.29 0-.969 1.886-4.274 3.679-6.584-.688 1.549-1.415 4.01-1.415 5.366 0 .705 1.347 1.508 2.749 1.508.22 0 1.31-1.472 2.418-3.108.032 1.723 1.191 3.108 2.573 3.108 1.86 0 3.854-2.531 4.366-5.104.41 0 .831-.08 1.232-.219-1.22 3.44-2.59 7.963-2.59 8.545 0 .636 1.672 1.77 2.467 1.77.229 0 .39-.11.39-.318 0-.124-.04-.18-.134-.18-.095 0-.148-.096-.148-.29 0-.72.754-2.96 1.819-5.2.296.415 1.617.996 2.439.996 2.115 0 4.5-3.9 4.5-7.566 0-.553-1.509-1.715-2.183-1.715-1.078 0-2.91 2.905-4.217 5.367.66-1.978 1.55-4.053 1.819-4.053.054 0 .108-.069.108-.138 0-.415-1.658-1.176-2.507-1.176-.22 0-.762 1.235-1.39 2.93a2.843 2.843 0 01-1.497.431c.013-.138.013-.276.013-.415a4.29 4.29 0 00-.08-.885.249.249 0 00.107.028c.135 0 .324-.166.324-.443 0-.83-1.698-1.798-3.113-1.798-1.257 0-2.904 1.866-3.748 3.87-1.188 1.762-2.933 4.29-3.063 4.29-.026 0-.04-.083-.04-.221 0-1.577 1.779-6.044 2.304-6.044.081 0 .175-.124.175-.263 0-.594-1.913-1.493-2.344-1.493-.782 0-2.951 2.793-4.353 5.255 1.32-3.651 3.666-8.92 4.259-8.92.08 0 .148-.083.148-.18 0-.443-1.537-1.203-2.345-1.203-.762 0-2.765 4.897-4.048 8.632-2.047 3.23-4.849 5.295-7.394 5.295-1.874 0-2.979-1.093-2.979-2.96 0-4.37 6.159-11.535 10.013-11.535 0 2.573-2.237 5.574-3.868 5.574-.242 0-.323.07-.323.138zM25.84 9.667c-1.038 1.107-1.9 3.168-1.9 4.703 0 .843.256 1.037.566 1.037 1.024 0 2.412-2.144 2.883-4.08-.835-.277-1.455-.913-1.55-1.66zm1.684.844c.014-.138.014-.263.014-.387 0-.636-.162-.94-.364-.94-.175 0-.324.18-.324.47 0 .373.256.677.674.857zm3.925 4.758c.795-1.577 3.625-6.556 4.366-7.11 0 3.61-2.156 6.985-4.366 7.11zm9.97-2.6c1.308-2.462 3.14-5.367 4.219-5.367.673 0 2.183 1.162 2.183 1.715 0 3.665-2.386 7.566-4.501 7.566-.822 0-2.143-.581-2.44-.996-1.064 2.24-1.818 4.48-1.818 5.2 0 .194.054.29.148.29s.135.056.135.18c0 .208-.162.318-.391.318-.795 0-2.466-1.134-2.466-1.77 0-.954 3.679-12.503 4.352-12.503.85 0 2.507.761 2.507 1.176 0 .07-.054.138-.108.138-.27 0-1.159 2.075-1.82 4.053zm-.39 2.6c.795-1.577 3.625-6.556 4.366-7.11 0 3.61-2.156 6.985-4.366 7.11zM55.501 9.46c0-1.12-1.375-2.171-2.574-2.171-2.156 0-4.824 3.388-4.824 5.877 0 1.923 1.576 3.417 3.072 3.417 1.389 0 2.875-1.275 4.114-2.723-.115.44-.183.778-.183.952 0 .94 1.94 1.77 2.44 1.77.148 0 .242-.069.242-.29 0-.928 1.733-4.013 3.476-6.3l.036.003a3.798 3.798 0 00-.197 1.166c0 .336.562.787 1.243 1.108-.757 1.932-1.297 3.614-1.297 4.27 0 .952 1.109 2.09 1.825 2.09.243 0 .405-.134.405-.576 0-.187.027-.415.081-.683 1.163.817 2.42 1.272 3.637 1.272 3.69 0 7.299-3.107 7.299-6.307 0-1.621-.933-2.746-2.5-3.241 2.635-.925 4.19-2.505 4.19-4.514C75.985 1.848 73.12 0 68.93 0c-5.556 0-9.949 3.281-9.949 6.937 0 .199.013.392.038.578-.379-.13-.742-.213-.962-.213-.38 0-1.247 2-1.943 3.954-1.26 1.8-3.192 4.151-4.535 4.151-.606 0-.983-.484-.983-1.286 0-1.909 2.102-4.537 3.57-4.703-.242 1.702-1.967 2.877-2.843 2.877-.175 0-.27.042-.27.097 0 .18.796.58 1.335.58 1.051 0 3.113-1.603 3.113-3.512zm4.346-.144c-.387.72-.9 1.912-1.331 3.104a30.22 30.22 0 011.807-2.733 2.342 2.342 0 01-.476-.37zm1.015-.323c.808-.998 1.536-1.69 1.925-1.69.244 0 .9.254 1.461.586 1.078-2.246 2.124-4.032 2.586-4.032 1 0 2.204 1.058 2.204 1.728 0 .227-.135.348-.23.348-.305 0-1.078 1.198-1.936 2.848a.48.48 0 01.227-.068.36.36 0 01.25.12c3.966-.402 6.609-1.86 6.609-3.81 0-1.675-1.96-2.773-5.042-2.773-4.569 0-8.664 2.41-8.664 5.156 0 .656.231 1.23.61 1.587zm4.83 2.17c.225-.228.447-.463.655-.693 1.239-.415 2.372-.613 3.34-.613 1.824 0 3 .723 3 1.995 0 2.29-3.757 4.875-6.974 4.875-.757 0-1.46-.147-2.082-.428.44-1.431 1.225-3.345 2.061-5.135zm19.11-8.31c-.696 0-2.89 5.043-4.23 8.695-1.194 1.666-2.881 3.96-3.008 3.96-.027 0-.04-.08-.04-.147 0-.656 1.662-6.013 2.175-6.013.055 0 .136-.08.136-.2 0-.537-1.46-1.407-2.23-1.407-.622 0-2.866 6.388-2.866 7.393 0 .83 1.487 1.607 2.892 1.607.196 0 1.046-1.045 1.994-2.332-.086.329-.134.574-.134.711 0 .817 1.73 1.62 2.216 1.62.15 0 .244-.066.244-.28 0-.51.527-1.648 1.298-2.947.283 1.674 1.973 3.228 3.663 3.228.221 0 1.28-1.358 2.372-2.892.213 1.656 1.669 2.892 3.055 2.892 1.996 0 4.194-2.534 5.573-4.465.263.468.625.97 1.047 1.438-.216.107-.433.214-.609.295-1.892.843-2.54 1.767-2.54 2.571 0 1.219 1.486 2.17 2.378 2.17 1.109 0 3.609-1.514 3.609-2.867 0-.589-.473-1.42-.946-2.21a99.05 99.05 0 003.213-1.932c-.57 1.646-.958 2.977-.958 3.38 0 .83 1.73 1.62 2.23 1.62.149 0 .244-.067.244-.282 0-.937 1.892-4.138 3.69-6.374-.69 1.5-1.42 3.883-1.42 5.196 0 .683 1.352 1.46 2.758 1.46.22 0 1.314-1.425 2.425-3.01.033 1.669 1.195 3.01 2.582 3.01 1.865 0 3.865-2.451 4.379-4.942.411 0 .834-.078 1.235-.212-1.224 3.331-2.597 7.71-2.597 8.274 0 .616 1.676 1.714 2.474 1.714.23 0 .392-.107.392-.308 0-.12-.041-.174-.135-.174-.095 0-.149-.093-.149-.281 0-.696.757-2.866 1.825-5.036.297.402 1.622.965 2.446.965 2.123 0 4.515-3.777 4.515-7.326 0-.536-1.514-1.66-2.19-1.66-1.081 0-2.919 2.812-4.231 5.196.663-1.916 1.555-3.924 1.825-3.924.054 0 .108-.067.108-.134 0-.402-1.662-1.139-2.514-1.139-.221 0-.764 1.196-1.395 2.838a2.93 2.93 0 01-1.501.417c.014-.134.014-.268.014-.402 0-.321-.027-.616-.081-.857a.254.254 0 00.108.027c.135 0 .324-.161.324-.429 0-.804-1.703-1.741-3.122-1.741-1.261 0-2.913 1.807-3.759 3.746-1.192 1.708-2.943 4.155-3.073 4.155-.027 0-.04-.08-.04-.214 0-1.527 1.784-5.852 2.311-5.852.081 0 .176-.12.176-.255 0-.576-1.92-1.446-2.352-1.446-.784 0-2.96 2.705-4.366 5.089 1.324-3.536 3.676-8.638 4.271-8.638.081 0 .149-.08.149-.174 0-.429-1.541-1.165-2.352-1.165-.715 0-2.517 4.143-3.799 7.638a81.365 81.365 0 01-4.106 2.46c-.27-.456-.473-.857-.473-1.125 0-.844 2.095-2.679 2.96-2.679.271 0 .568.188.568.415 0 .134.095.228.203.228.148 0 .324-.147.324-.55 0-1.164-1.527-2.129-2.446-2.129-1.46 0-4.096 2.438-4.096 3.817 0 .111.018.236.051.371-1.25 1.769-3.33 4.303-4.751 4.303-.609 0-.987-.468-.987-1.245 0-1.848 2.109-4.393 3.582-4.554-.243 1.648-1.974 2.786-2.852 2.786-.176 0-.27.04-.27.094 0 .174.797.562 1.338.562 1.054 0 3.122-1.553 3.122-3.401 0-1.085-1.379-2.103-2.582-2.103-1.721 0-3.768 2.079-4.531 4.143-1.158 1.632-2.604 3.624-2.721 3.624-.649 0-1.176-1.03-1.176-1.915 1.568 0 3.609-3.227 3.609-4.473 0-.388-1.65-1.38-2.176-1.38-.865 0-3.014 2.626-4.434 4.983 1.352-3.536 3.717-8.585 4.299-8.585.08 0 .189-.107.189-.2 0-.349-1.555-1.085-2.352-1.085zm-4.278 4.285c0 .16-.027.268-.487.268-1.095 0-1.865-.643-1.865-1.513 0-1.112 1.216-3.04 1.96-3.04.514 0 1.96.897 1.96 1.312 0 .094-.095.201-.203.201-.486 0-1.365 1.902-1.365 2.772zm3.346 5.397c.798-1.245 1.757-2.517 2.609-3.428.014 0 .014.04.014.107 0 .897-1.514 3.415-2.339 3.415a.55.55 0 01-.284-.094zm13.115 4.46c-.27 0-.46-.12-.46-.348 0-.375.541-1.031 2.19-1.821.217-.108.46-.228.717-.362.122.228.19.428.19.603 0 .857-1.853 1.928-2.637 1.928zm18.67-2.397c0-1.487.865-3.482 1.906-4.554.095.724.716 1.34 1.554 1.607-.473 1.876-1.865 3.951-2.892 3.951-.311 0-.568-.187-.568-1.004zm3.609-4.112c0 .121 0 .241-.013.375-.419-.174-.676-.468-.676-.83 0-.281.148-.455.324-.455.203 0 .365.294.365.91zm3.924 4.982c.797-1.526 3.636-6.348 4.379-6.883 0 3.495-2.163 6.763-4.379 6.883z" fill="#BAA480"/></svg>