<svg width="184" height="30" fill="none" xmlns="http://www.w3.org/2000/svg"><path fill-rule="evenodd" clip-rule="evenodd" d="M10.625 10.492c0 .403 1.839 1.19 2.964 1.19 2.16 0 4.5-2.895 4.5-5.974 0-2.932-2.107-5.003-5.036-5.003C7.178.705 0 9.1 0 15.843c0 4.527 3.25 8.339 7.107 8.339 2.736 0 5.715-1.921 8.312-5.112-.175.662-.274 1.15-.274 1.392 0 1.136 2.285 2.217 2.946 2.217.197 0 .322-.092.322-.385 0-1.283 2.5-5.663 4.874-8.724-.91 2.053-1.875 5.315-1.875 7.111 0 .935 1.786 1.998 3.643 1.998.29 0 1.736-1.95 3.205-4.117.042 2.282 1.578 4.117 3.41 4.117 2.463 0 5.106-3.354 5.785-6.763.543 0 1.101-.106 1.632-.29-1.618 4.559-3.431 10.552-3.431 11.323 0 .843 2.214 2.346 3.268 2.346.303 0 .517-.147.517-.422 0-.164-.053-.238-.178-.238s-.196-.128-.196-.385c0-.953 1-3.922 2.41-6.89.393.55 2.143 1.319 3.232 1.319 2.804 0 5.964-5.168 5.964-10.025 0-.733-2-2.272-2.892-2.272-1.429 0-3.858 3.848-5.59 7.11.875-2.62 2.054-5.37 2.411-5.37.072 0 .143-.09.143-.182 0-.55-2.196-1.558-3.321-1.558-.292 0-1.01 1.636-1.844 3.883a3.77 3.77 0 01-1.982.57c.017-.183.017-.366.017-.55 0-.44-.035-.843-.107-1.173a.33.33 0 00.143.037c.179 0 .429-.22.429-.586 0-1.1-2.25-2.383-4.125-2.383-1.666 0-3.848 2.472-4.966 5.127-1.574 2.336-3.888 5.686-4.059 5.686-.036 0-.053-.11-.053-.293 0-2.09 2.357-8.01 3.053-8.01.107 0 .232-.164.232-.347 0-.788-2.535-1.98-3.107-1.98-1.036 0-3.91 3.702-5.767 6.965 1.75-4.839 4.856-11.821 5.642-11.821.107 0 .197-.11.197-.239 0-.586-2.036-1.594-3.107-1.594-1.01 0-3.664 6.49-5.364 11.44-2.713 4.278-6.425 7.015-9.8 7.015-2.481 0-3.945-1.448-3.945-3.922 0-5.791 8.16-15.284 13.267-15.284 0 3.408-2.964 7.385-5.125 7.385-.321 0-.428.092-.428.184zm23.616 3.024c-1.375 1.466-2.518 4.196-2.518 6.23 0 1.119.34 1.375.75 1.375 1.357 0 3.196-2.84 3.821-5.406-1.107-.367-1.928-1.21-2.053-2.2zm2.232 1.117c.017-.183.017-.348.017-.513 0-.843-.214-1.246-.482-1.246-.232 0-.428.238-.428.623 0 .495.34.898.893 1.136zm5.2 6.305c1.054-2.09 4.804-8.687 5.786-9.42 0 4.783-2.857 9.255-5.785 9.42zm13.213-3.445c1.732-3.263 4.16-7.111 5.59-7.111.892 0 2.892 1.54 2.892 2.272 0 4.857-3.16 10.025-5.964 10.025-1.09 0-2.84-.77-3.232-1.32-1.41 2.97-2.41 5.938-2.41 6.891 0 .257.07.385.196.385.125 0 .178.074.178.238 0 .275-.214.422-.518.422-1.053 0-3.267-1.503-3.267-2.346 0-1.264 4.875-16.567 5.767-16.567 1.125 0 3.322 1.008 3.322 1.558 0 .091-.072.183-.143.183-.357 0-1.536 2.749-2.41 5.37zm-.518 3.445c1.054-2.09 4.804-8.687 5.786-9.42 0 4.783-2.857 9.255-5.786 9.42zm19.177-7.697c0-1.485-1.821-2.878-3.41-2.878-2.858 0-6.393 4.49-6.393 7.79 0 2.547 2.09 4.526 4.071 4.526 1.84 0 3.81-1.689 5.452-3.607-.153.582-.243 1.03-.243 1.261 0 1.246 2.572 2.346 3.233 2.346.196 0 .321-.092.321-.385 0-1.246 2.357-5.425 4.696-8.467a5.076 5.076 0 00-.303 1.668c0 .77 2.232 1.998 3.642 1.998.679 0 4.768-4.216 4.732-4.912-.017-.128-.214-.33-.428-.33-.268 0-.572.257-.786.513-.482.605-3.357 3.446-3.607 3.446-.036 0-.053-.055-.053-.202 0-1.045.875-3.17 1.5-3.17.196 0 .375-.22.375-.44 0-.825-2.536-2.016-3.143-2.016-1.018 0-3.786 3.573-5.66 6.78.91-2.51 2.088-5.02 2.446-5.02.053 0 .125-.093.125-.202 0-.679-2.358-1.558-3.179-1.558-.505 0-1.653 2.65-2.575 5.239-1.67 2.386-4.23 5.5-6.01 5.5-.803 0-1.303-.641-1.303-1.704 0-2.53 2.786-6.011 4.732-6.231-.321 2.254-2.607 3.812-3.767 3.812-.233 0-.358.055-.358.128 0 .238 1.054.77 1.768.77 1.393 0 4.125-2.126 4.125-4.655zm29.422-5.136c0 .302-.179.462-.304.462-.412 0-1.469 1.65-2.633 3.904 5.642-.426 9.457-2.413 9.457-5.11 0-2.22-2.597-3.674-6.681-3.674-6.054 0-11.481 3.194-11.481 6.832 0 1.455.86 2.609 2.06 2.609.465 0 .734.177.734.372 0 .231-.358.462-1.11.462-2.024 0-3.368-1.74-3.368-4.064 0-4.845 5.822-9.193 13.183-9.193 5.553 0 9.35 2.45 9.35 6.07 0 2.661-2.06 4.756-5.553 5.98 2.078.657 3.314 2.147 3.314 4.295 0 4.241-4.782 8.358-9.672 8.358-1.612 0-3.278-.603-4.818-1.686a4.693 4.693 0 00-.108.906c0 .585-.215.763-.537.763-.95 0-2.418-1.509-2.418-2.769 0-2.555 6.161-16.806 7.666-16.806 1.325 0 2.919 1.402 2.919 2.29zm.86 5.662c-1.415 0-3.098.32-4.943.994-1.236 2.573-2.436 5.448-3.081 7.542.824.372 1.755.568 2.758.568 4.263 0 9.243-3.425 9.243-6.46 0-1.686-1.559-2.644-3.977-2.644zm20.031-9.282c-.923 0-3.831 6.683-5.607 11.523-1.581 2.207-3.817 5.248-3.985 5.248-.036 0-.054-.107-.054-.195 0-.87 2.203-7.969 2.884-7.969.071 0 .179-.106.179-.266 0-.71-1.935-1.863-2.956-1.863-.824 0-3.797 8.465-3.797 9.796 0 1.1 1.97 2.13 3.833 2.13.26 0 1.386-1.385 2.642-3.09-.115.435-.178.76-.178.942 0 1.083 2.293 2.148 2.938 2.148.197 0 .322-.09.322-.373 0-.675.699-2.183 1.72-3.904.376 2.218 2.615 4.277 4.854 4.277.293 0 1.696-1.8 3.143-3.833.282 2.196 2.211 3.832 4.049 3.832 2.645 0 5.556-3.358 7.384-5.916.35.62.829 1.285 1.388 1.906-.287.142-.574.284-.806.39-2.508 1.118-3.368 2.343-3.368 3.407 0 1.615 1.971 2.875 3.153 2.875 1.468 0 4.782-2.005 4.782-3.797 0-.781-.627-1.881-1.254-2.928a132.759 132.759 0 004.258-2.562c-.756 2.18-1.27 3.945-1.27 4.478 0 1.1 2.293 2.148 2.955 2.148.197 0 .323-.09.323-.373 0-1.242 2.507-5.484 4.89-8.448-.914 1.988-1.881 5.147-1.881 6.886 0 .905 1.791 1.934 3.654 1.934.291 0 1.741-1.888 3.214-3.987.043 2.21 1.584 3.988 3.42 3.988 2.472 0 5.123-3.248 5.804-6.55.545 0 1.105-.102 1.637-.28-1.623 4.414-3.442 10.218-3.442 10.964 0 .817 2.221 2.272 3.278 2.272.305 0 .52-.142.52-.408 0-.16-.054-.23-.179-.23-.126 0-.198-.125-.198-.373 0-.923 1.004-3.798 2.419-6.673.394.532 2.149 1.277 3.241 1.277 2.813 0 5.983-5.004 5.983-9.707 0-.71-2.006-2.2-2.902-2.2-1.433 0-3.869 3.726-5.606 6.885.878-2.538 2.06-5.2 2.418-5.2.072 0 .143-.088.143-.177 0-.533-2.203-1.509-3.331-1.509-.293 0-1.013 1.585-1.849 3.76a3.886 3.886 0 01-1.989.553c.018-.178.018-.355.018-.532a5.3 5.3 0 00-.108-1.136c.036.017.09.035.144.035.179 0 .43-.213.43-.568 0-1.065-2.257-2.307-4.138-2.307-1.671 0-3.86 2.394-4.981 4.964-1.579 2.263-3.9 5.507-4.071 5.507-.036 0-.054-.107-.054-.284 0-2.023 2.364-7.756 3.063-7.756.107 0 .232-.16.232-.337 0-.763-2.543-1.916-3.116-1.916-1.039 0-3.923 3.585-5.785 6.743 1.755-4.685 4.871-11.446 5.66-11.446.107 0 .197-.107.197-.23 0-.569-2.042-1.545-3.117-1.545-.947 0-3.335 5.49-5.035 10.122a106.88 106.88 0 01-5.44 3.26c-.358-.604-.627-1.137-.627-1.492 0-1.118 2.777-3.549 3.923-3.549.358 0 .752.248.752.55 0 .178.125.302.269.302.197 0 .43-.195.43-.728 0-1.544-2.024-2.821-3.242-2.821-1.935 0-5.427 3.23-5.427 5.057 0 .147.023.312.068.492-1.658 2.344-4.413 5.702-6.297 5.702-.806 0-1.307-.621-1.307-1.65 0-2.45 2.794-5.821 4.746-6.034-.322 2.183-2.615 3.691-3.779 3.691-.233 0-.358.053-.358.124 0 .23 1.056.746 1.773.746 1.397 0 4.137-2.06 4.137-4.508 0-1.438-1.827-2.786-3.421-2.786-2.281 0-4.993 2.754-6.005 5.49-1.533 2.163-3.449 4.803-3.605 4.803-.86 0-1.558-1.367-1.558-2.538 2.077 0 4.782-4.277 4.782-5.927 0-.515-2.185-1.828-2.884-1.828-1.146 0-3.994 3.478-5.875 6.601 1.791-4.685 4.926-11.375 5.696-11.375.108 0 .251-.142.251-.266 0-.462-2.06-1.438-3.117-1.438zm-5.67 5.68c0 .212-.036.354-.645.354-1.45 0-2.471-.852-2.471-2.005 0-1.473 1.612-4.029 2.597-4.029.68 0 2.597 1.19 2.597 1.74 0 .124-.125.266-.269.266-.645 0-1.809 2.52-1.809 3.673zm4.434 7.151c1.057-1.65 2.329-3.336 3.457-4.543.018 0 .018.053.018.142 0 1.189-2.006 4.525-3.098 4.525a.732.732 0 01-.377-.124zm17.38 5.91c-.359 0-.609-.16-.609-.462 0-.497.716-1.366 2.901-2.413.287-.142.609-.302.95-.48.161.302.25.568.25.8 0 1.135-2.454 2.555-3.492 2.555zm24.739-3.177c0-1.97 1.146-4.614 2.526-6.034.125.958.949 1.775 2.059 2.13-.626 2.484-2.471 5.235-3.833 5.235-.412 0-.752-.248-.752-1.331zm4.782-5.448c0 .16 0 .32-.017.497-.556-.231-.896-.622-.896-1.1 0-.373.197-.604.43-.604.269 0 .483.39.483 1.207zm5.2 6.601c1.056-2.023 4.818-8.411 5.803-9.121 0 4.632-2.866 8.962-5.803 9.122z" fill="#BAA480"/></svg>