<svg width="246" height="71" fill="none" xmlns="http://www.w3.org/2000/svg"><path d="M10.118 31.23c4.282 0 7.865-1.184 7.865-6.229v-5.175c0-2.851-1.355-4.43-3.365-5.22 1.573-.658 2.447-2.325 2.447-4.035V6.14c0-4.518-2.709-5.615-6.772-5.615H.506v1.272l1.66 1.14v25.704L.2 29.958v1.272h9.918zm3.32-6.23c0 2.544-.742 3.597-3.32 3.597H5.661v-.22c.743-.262.918-.657.918-1.447V16.053h3.146c2.709 0 3.714 1.229 3.714 3.773V25zm-.917-14.43c0 1.579-.874 3.29-2.709 3.29H6.58V3.07h3.233c1.792 0 2.71 1.403 2.71 3.07v4.43zM40.18 24.343h-1.922l-1.486 4.211h-7.428v-.22c.743-.262.918-.657.918-1.359v-9.693h4.194l1.136 2.324h1.311v-7.412h-1.31l-1.137 2.412h-4.194V3.07h5.942l1.223 4.299h2.185V.482H24.057v1.14l1.66 1.141v25.879l-1.966 1.316v1.272h16.43v-6.887zM58.53 3.114v25.791l-1.922 1.053v1.272h8.302v-1.272l-1.966-1.053V2.895l1.66-1.14V.481H47.957v1.272l1.835 1.316-2.49 23.423c-.263 2.85-1.705 2.807-3.146 2.588l-.219 2.149c3.801 1.096 6.38-.132 6.729-4.386l2.403-23.73h5.462zm30.293 5.088C88.823 3.246 85.415 0 80.041 0c-5.331 0-8.739 3.29-8.739 8.202v15.264c0 4.913 3.408 8.202 8.739 8.202 5.374 0 8.782-3.245 8.782-8.202V8.202zm-12.977 0c0-3.465 1.31-5.263 4.195-5.263 2.927 0 4.282 2.368 4.282 5.263v15.264c0 2.851-1.355 5.264-4.282 5.264-2.884 0-4.195-1.843-4.195-5.264V8.202zM113.045.395h-3.015l-.349 1.667h-.131C108.239.614 106.273.175 104.394.175c-5.156 0-8.346 2.94-8.346 8.159v15.22c0 5.57 3.758 8.158 8.652 8.158 4.893 0 8.607-2.368 8.607-7.807v-1.667h-4.544v1.623c0 3.114-.917 4.956-4.107 4.956-2.622 0-4.063-1.622-4.063-5.263V8.334c0-3.86 1.878-5.264 3.932-5.264 3.146.044 3.976 2.325 3.976 5.088v.834h4.544V.395zm17.827 1.359l1.617 1.229-5.549 14.693-1.792 5.79V2.895l1.617-1.14V.525h-7.69v1.228l1.616 1.14v25.748l-1.922 1.36v1.228h8.302v-1.228l-1.835-1.272 5.33-14.08 1.923-6.01c0 6.36.043 13.642.043 20.002l-1.966 1.36v1.228h8.302v-1.228l-1.923-1.36V2.895l1.617-1.14V.525h-7.69v1.228zm19.876 1.36h7.078v25.791l-1.922 1.053v1.272h8.302v-1.272l-1.967-1.053V2.895l1.661-1.14V.481h-19.225v1.272l1.66 1.14v26.011l-1.966 1.053v1.272h8.345v-1.272l-1.966-1.053V3.115zm35.393 21.229h-1.922l-1.486 4.211h-7.428v-.22c.743-.262.918-.657.918-1.359v-9.693h4.194l1.136 2.324h1.311v-7.412h-1.311l-1.136 2.412h-4.194V3.07h5.942l1.224 4.299h2.184V.482h-15.555v1.14l1.661 1.141v25.879l-1.966 1.316v1.272h16.428v-6.887zm7.427 1.317c-.262 2.631-1.441 3.07-3.495 2.85l-.262 7.238h2.272l1.311-4.518h15.38l1.31 4.518h2.273l-.306-7.238h-2.709V2.94l1.66-1.14V.525h-16.953v1.272l1.879 1.14-2.36 22.721zm5.418-22.502h5.943V28.51h-9.569v-.131c1.311-.746 1.354-1.799 1.485-3.202l2.141-22.019zm27.177 25.396h-2.84V14.65h2.797c2.927 0 4.063 1.579 4.063 4.386v5.088c0 2.807-1.049 4.43-4.02 4.43zm8.564-9.518c0-5.483-3.889-6.93-8.695-6.93h-2.709V3.114l1.923-1.316V.526h-8.302v1.272l1.966 1.316v25.747l-1.66 1.14v1.229h8.87c4.718 0 8.607-1.755 8.607-7.106v-5.088zm9.351-16.141l1.66-1.14V.481h-7.734v1.272l1.66 1.14v25.748l-1.966 1.316v1.272H246v-1.272l-1.922-1.316V2.895zM10.368 51.896h-1.84l-.212 1.017h-.08c-.8-.883-2-1.15-3.145-1.15C1.946 51.763 0 53.555 0 56.739v9.284C0 69.421 2.292 71 5.277 71c2.985 0 5.25-1.445 5.25-4.763v-1.016h-2.77v.99c0 1.9-.56 3.023-2.505 3.023-1.6 0-2.48-.99-2.48-3.21v-9.285c0-2.354 1.147-3.21 2.4-3.21 1.919.026 2.425 1.417 2.425 3.103v.509h2.772v-5.245zm17.715 1.739l.906 3.077h1.28l-.107-4.762H19.314l-.106 4.762h1.28l.852-3.077h1.999v15.332l-1.173.829v.91h5.144v-.91l-1.172-.83v-15.33h1.945zm11.059 17.071c2.612 0 4.798-.723 4.798-3.8V63.75c0-1.739-.826-2.702-2.052-3.184.96-.401 1.492-1.418 1.492-2.461V55.4c0-2.756-1.652-3.424-4.13-3.424h-5.971v.776l1.013.695v15.68l-1.2.802v.776h6.05zm2.026-3.8c0 1.552-.453 2.194-2.026 2.194h-2.718v-.133c.453-.161.56-.402.56-.883v-6.636h1.919c1.652 0 2.265.75 2.265 2.301v3.157zm-.56-8.802c0 .963-.533 2.006-1.652 2.006h-1.972v-6.582h1.972c1.093 0 1.652.857 1.652 1.873v2.703zm18.072-1.445c0-3.024-2.08-5.003-5.358-5.003-3.251 0-5.33 2.006-5.33 5.003v9.31c0 2.998 2.079 5.004 5.33 5.004 3.279 0 5.358-1.98 5.358-5.003v-9.311zm-7.916 0c0-2.114.8-3.21 2.558-3.21 1.786 0 2.612 1.444 2.612 3.21v9.31c0 1.74-.826 3.212-2.611 3.212-1.76 0-2.56-1.124-2.56-3.211v-9.311zm19.173-3.933l.986.749-3.385 8.963-1.093 3.532V53.42l.987-.695v-.75H62.74v.75l.986.695v15.706l-1.173.83v.749h5.064v-.75l-1.12-.775 3.252-8.589 1.173-3.666c0 3.88.027 8.322.027 12.201l-1.2.83v.749h5.064v-.75l-1.172-.829V53.421l.986-.695v-.75h-4.691v.75zM81.235 69.18V57.489l-.133-3.451h.133c.986 5.297 1.84 10.328 2.719 15.652.08.508.346.75.906.75h2.212l2.932-16.59h.107l-.08 2.676v12.602l-1.173.803v.776h5.09v-.776l-1.172-.803V53.421l1.04-.695v-.75H89.95c-1.013-.026-1.36.161-1.573 1.151l-2.372 14.127h-.053c-.613-5.244-1.2-8.776-2.186-14.047-.24-1.016-.64-1.23-1.626-1.23h-3.864v.749l1.066.695v15.76l-1.12.695v.83h4.132v-.83l-1.12-.695zm26.038-16.16c-.427-.963-.667-1.07-1.44-1.07h-2.425v.695l.773.482 3.305 8.562-3.785 7.732-.906.509v.776h3.731v-.776l-.933-.482 2.666-5.538 2.292 5.725c.426 1.017.746 1.07 1.519 1.07h2.479v-.668l-.96-.562-3.571-9.124 3.465-7.144.906-.508v-.75h-3.678v.75l.933.482-2.426 5.056-1.945-5.217zm14.868 2.087h.027l2.079 9.017h-4.185l2.079-9.017zm-2.425 10.542h4.904l.88 3.772-.747.589v.696h4.531v-.83l-.959-.588-4.291-17.445h-2.746c-1.359 5.511-2.851 11.986-4.184 17.525l-.96.508v.83h3.625v-.83l-.933-.481.88-3.746zm17.484-12.04c1.812 0 2.452.99 2.452 2.702v3.345c0 1.712-.693 2.675-2.479 2.675h-1.706V53.61h1.733zm5.224 2.702c0-3.264-2.373-4.361-5.251-4.361h-5.411v.776l1.013.695v15.706l-1.199.803v.776h5.064v-.776l-1.173-.803v-5.244h1.653c2.931 0 5.304-.883 5.304-4.227V56.31zm7.279-1.204h.027l2.079 9.017h-4.185l2.079-9.017zm-2.425 10.542h4.904l.879 3.772-.746.589v.696h4.531v-.83l-.959-.588-4.292-17.445h-2.745c-1.359 5.511-2.852 11.986-4.184 17.525l-.96.508v.83h3.625v-.83l-.933-.481.88-3.746zm23.587-13.699c-1.013 0-2.186-.134-3.039.455-2.425 1.712-1.439 7.625-4.824 7.625v-6.609l1.013-.695v-.776h-4.717v.776l1.012.695v15.706l-1.172.803v.776h5.064v-.776l-1.2-.803v-7.599h.8c1.679 0 2.292 1.338 2.639 2.997l.772 3.72c.32 1.498.907 2.621 2.612 2.621.48 0 1.253-.053 1.786-.348v-1.043c-.826.187-1.386-.696-1.572-1.579l-.827-3.906c-.373-1.712-1.119-3.371-2.505-3.505v-.054c1.226-.4 2.052-4.762 2.639-6.153.346-.83.613-1.311 1.519-1.285V51.95zm11.658 1.685l.906 3.077h1.28l-.107-4.762h-10.848l-.106 4.762h1.279l.853-3.077h1.999v15.332l-1.173.829v.91h5.144v-.91l-1.172-.83v-15.33h1.945zm15.031 12.87h-1.173l-.906 2.569h-4.531v-.134c.453-.16.56-.401.56-.83v-5.913h2.558l.693 1.418h.8v-4.521h-.8l-.693 1.471h-2.558v-7.037h3.624l.747 2.623h1.332V51.95h-9.488v.695l1.013.696v15.786l-1.2.803v.776h10.022v-4.201zm8.901-12.896c1.813 0 2.453.99 2.453 2.702v3.345c0 1.712-.693 2.675-2.479 2.675h-1.706V53.61h1.732zm5.224 2.702c0-3.264-2.372-4.361-5.25-4.361h-5.411v.776l1.013.695v15.706l-1.199.803v.776h5.064v-.776l-1.173-.803v-5.244h1.653c2.931 0 5.303-.883 5.303-4.227V56.31zm14.402.348c0-3.024-2.079-5.003-5.357-5.003-3.252 0-5.331 2.006-5.331 5.003v9.31c0 2.998 2.079 5.004 5.331 5.004 3.278 0 5.357-1.98 5.357-5.003v-9.311zm-7.916 0c0-2.114.799-3.21 2.559-3.21 1.785 0 2.612 1.444 2.612 3.21v9.31c0 1.74-.827 3.212-2.612 3.212-1.76 0-2.559-1.124-2.559-3.211v-9.311zM233.02 69.18V57.489l-.133-3.451h.133c.986 5.297 1.839 10.328 2.719 15.652.08.508.346.75.906.75h2.212l2.932-16.59h.107l-.08 2.676v12.602l-1.173.803v.776h5.091v-.776l-1.173-.803V53.421l1.039-.695v-.75h-3.864c-1.013-.026-1.359.161-1.573 1.151l-2.372 14.127h-.053c-.613-5.244-1.2-8.776-2.186-14.047-.24-1.016-.639-1.23-1.626-1.23h-3.864v.749l1.066.695v15.76l-1.119.695v.83h4.131v-.83l-1.12-.695z" fill="#BAA480"/></svg>